<svg width="82" height="82" viewBox="0 0 82 82" fill="none" xmlns="http://www.w3.org/2000/svg">
<circle cx="41" cy="41" r="41" fill="#EEF9F6"/>
<path d="M65 41C65 44.7015 64.1642 48.403 62.4328 51.7463C58.4328 59.8657 50.1343 65 41 65C37.2985 65 33.597 64.1642 30.2537 62.4328L19.0896 64.4627C18.194 64.6418 17.4776 63.8657 17.597 62.9701L19.5672 51.7463C17.8955 48.403 17 44.7612 17 41C17 31.9254 22.1343 23.6269 30.2537 19.5672C33.597 17.8955 37.2388 17 41 17H42.4328C54.6119 17.7164 64.3433 27.4478 65 39.6269V41Z" stroke="#152FBF" stroke-width="2" stroke-miterlimit="10" stroke-linecap="round" stroke-linejoin="round"/>
<path d="M39.3891 33.9722C39.6408 33.719 39.9511 33.5319 40.2925 33.4276C40.6339 33.3233 40.9957 33.3049 41.3459 33.3741C41.6961 33.4434 42.0238 33.5981 42.2998 33.8244C42.5758 34.0508 42.7916 34.3419 42.928 34.6718C43.0644 35.0016 43.1172 35.3601 43.0816 35.7153C43.0461 36.0705 42.9234 36.4114 42.7243 36.7077C42.5253 37.0041 42.2561 37.2466 41.9408 37.4139C41.6254 37.5811 41.2736 37.6678 40.9166 37.6663H31.1666M42.6391 50.0272C42.8908 50.2803 43.2011 50.4674 43.5425 50.5717C43.8839 50.676 44.2457 50.6944 44.5959 50.6252C44.9461 50.5559 45.2738 50.4013 45.5498 50.1749C45.8258 49.9485 46.0416 49.6574 46.178 49.3275C46.3144 48.9977 46.3672 48.6392 46.3316 48.284C46.2961 47.9288 46.1734 47.5879 45.9743 47.2916C45.7753 46.9952 45.5061 46.7527 45.1908 46.5854C44.8754 46.4182 44.5236 46.3315 44.1666 46.333H31.1666M48.2075 37.3738C48.5225 37.0595 48.9102 36.8277 49.3362 36.6989C49.7622 36.5701 50.2134 36.5483 50.6498 36.6353C51.0863 36.7223 51.4945 36.9156 51.8385 37.198C52.1825 37.4803 52.4516 37.8431 52.622 38.2542C52.7924 38.6654 52.8589 39.1121 52.8156 39.5551C52.7722 39.998 52.6204 40.4234 52.3736 40.7937C52.1267 41.164 51.7924 41.4677 51.4002 41.6781C51.008 41.8884 50.57 41.9989 50.125 41.9997H31.1666" stroke="#152FBF" stroke-width="2" stroke-linecap="round" stroke-linejoin="round"/>
</svg>
