<svg width="82" height="83" viewBox="0 0 82 83" fill="none" xmlns="http://www.w3.org/2000/svg">
<circle cx="41" cy="41.0527" r="41" fill="white"/>
<path d="M66 38.7524V41.0524C65.9969 46.4435 64.2513 51.6891 61.0233 56.007C57.7954 60.3248 53.2582 63.4836 48.0884 65.0121C42.9186 66.5407 37.3931 66.3571 32.3362 64.4889C27.2792 62.6206 22.9616 59.1676 20.0274 54.6451C17.0932 50.1225 15.6995 44.7726 16.0542 39.3932C16.4089 34.0138 18.493 28.8932 21.9957 24.7951C25.4984 20.6969 30.232 17.8409 35.4905 16.6528C40.749 15.4647 46.2507 16.0082 51.175 18.2024" stroke="#152FBF" stroke-width="2" stroke-linecap="round" stroke-linejoin="round"/>
<path d="M66 21.0527L41 46.0777L33.5 38.5777" stroke="#152FBF" stroke-width="2" stroke-linecap="round" stroke-linejoin="round"/>
</svg>
