<?xml version="1.0" encoding="UTF-8"?>
<!DOCTYPE svg PUBLIC "-//W3C//DTD SVG 1.1//EN" "http://www.w3.org/Graphics/SVG/1.1/DTD/svg11.dtd">
<!-- Creator: CorelDRAW X6 -->
<svg xmlns="http://www.w3.org/2000/svg" xml:space="preserve" width="127.002mm" height="94.9282mm" version="1.1" style="shape-rendering:geometricPrecision; text-rendering:geometricPrecision; image-rendering:optimizeQuality; fill-rule:evenodd; clip-rule:evenodd"
viewBox="0 0 57609 43060"
 xmlns:xlink="http://www.w3.org/1999/xlink">
 <defs>
  <style type="text/css">
   <![CDATA[
    .fil0 {fill:#152FBF;fill-rule:nonzero}
    .fil1 {fill:#1CABE2;fill-rule:nonzero}
    .fil2 {fill:#4FD183;fill-rule:nonzero}
    .fil3 {fill:#8DD3FF;fill-rule:nonzero}
   ]]>
  </style>
 </defs>
 <g id="Layer_x0020_1">
  <metadata id="CorelCorpID_0Corel-Layer"/>
  <g id="_1371994080">
   <path class="fil0" d="M28004 0c-2679,0 -4862,2180 -4862,4868 0,2689 2184,4868 4862,4868 2678,0 4862,-2180 4862,-4868 0,-2689 -2184,-4868 -4862,-4868z"/>
   <path class="fil1" d="M41606 16107c0,-2689 -2172,-4869 -4850,-4869l-13594 0 0 9738 13594 0c2679,0 4850,-2180 4850,-4869z"/>
   <path class="fil2" d="M19273 11238c-2679,0 -4851,2180 -4851,4869 0,2689 2172,4869 4851,4869l3890 0 0 3747c0,2696 2177,4881 4862,4881 2685,0 4862,-2185 4862,-4881l0 -3747 0 -9737 -13614 0z"/>
   <path class="fil3" d="M23162 11238c0,5378 4367,9737 9725,9737l0 -9737 -9725 0z"/>
   <path class="fil0" d="M56159 38299l0 -1440 -988 0 0 1440 -1431 0 0 988 1431 0 0 1441 988 0 0 -1441 1450 0 0 -988 -1450 0zm-6195 2306l-996 2455 1303 0 2555 -6170 -1312 0 -922 2347 -914 -2347 -1312 0 1598 3715zm-6069 -86c395,398 867,597 1416,597 265,0 508,-52 727,-156 222,-107 384,-256 485,-446l0 515 1225 0 0 -6395 -1225 0 0 2758c-101,-182 -263,-326 -485,-433 -219,-107 -462,-160 -727,-160 -551,0 -1023,202 -1416,606 -392,401 -589,923 -589,1567 0,632 196,1148 589,1546zm966 -2282c188,-185 414,-277 680,-277 265,0 491,89 675,268 188,179 281,418 281,719 0,289 -94,528 -281,719 -185,188 -410,281 -675,281 -266,0 -492,-91 -680,-273 -185,-185 -277,-427 -277,-727 0,-292 92,-528 277,-710zm-6328 2282c395,398 867,597 1416,597 266,0 508,-52 728,-156 222,-107 384,-256 485,-446l0 515 1225 0 0 -6395 -1225 0 0 2758c-101,-182 -263,-326 -485,-433 -219,-107 -462,-160 -728,-160 -551,0 -1023,202 -1416,606 -393,401 -589,923 -589,1567 0,632 196,1148 589,1546zm966 -2282c188,-185 414,-277 680,-277 266,0 491,89 675,268 188,179 281,418 281,719 0,289 -94,528 -281,719 -185,188 -410,281 -675,281 -265,0 -492,-91 -680,-273 -185,-185 -277,-427 -277,-727 0,-292 92,-528 277,-710zm-5974 2429c306,300 701,450 1186,450 205,0 408,-58 611,-173 202,-118 356,-279 463,-481l0 567 1230 0 0 -4139 -1230 0 0 2187c0,288 -72,502 -217,641 -141,136 -319,203 -532,203 -182,0 -349,-63 -502,-190 -153,-127 -229,-338 -229,-632l0 -2208 -1234 0 0 2472c0,569 152,1003 455,1303zm-3311 364c592,0 1065,-180 1420,-541 355,-361 533,-804 533,-1329 0,-283 -100,-562 -299,-836 -199,-277 -485,-463 -857,-559 291,-112 504,-273 636,-480 133,-211 199,-432 199,-662 0,-520 -165,-932 -494,-1238 -329,-309 -768,-463 -1316,-463l-2446 0 0 6109 2624 0zm-1321 -2624l1225 0c214,0 379,74 498,221 121,147 182,316 182,507 0,199 -58,375 -173,528 -113,150 -273,225 -481,225l-1251 0 0 -1481zm0 -2342l1009 0c190,0 335,58 433,173 98,115 147,271 147,467 0,182 -55,332 -165,450 -107,118 -242,178 -407,178l-1018 0 0 -1269zm-5647 4966l0 -2191c0,-289 81,-501 242,-636 162,-136 355,-204 580,-204 202,0 380,74 533,221 153,147 229,348 229,602l0 2208 1234 0 0 -2251c0,-632 -143,-1120 -429,-1464 -283,-343 -693,-515 -1230,-515 -225,0 -456,63 -693,190 -234,127 -390,309 -467,546l0 -2901 -1234 0 0 6395 1234 0zm-4112 -3165l0 3165 1225 0 0 -3165 870 0 0 -974 -870 0 0 -1589 -1225 0 0 1589 -753 0 0 974 753 0zm-1548 -3230l-1234 0 0 6395 1234 0 0 -6395zm0 6395zm-4830 78c196,0 417,-48 662,-143 245,-95 427,-231 545,-407l0 472 1221 0 0 -4139 -1221 0 0 459c-141,-202 -329,-344 -563,-424 -234,-84 -449,-125 -645,-125 -554,0 -1045,201 -1472,602 -424,398 -637,916 -637,1554 0,638 212,1156 637,1554 424,398 915,597 1472,597zm203 -3139c266,0 499,91 701,273 202,179 303,417 303,714 0,294 -101,532 -303,715 -202,179 -436,268 -701,268 -271,0 -512,-92 -723,-277 -208,-188 -312,-423 -312,-706 0,-286 104,-521 312,-706 211,-188 452,-281 723,-281zm-5055 3148l13 0c877,0 1504,-280 1879,-840l-896 -610c-202,260 -504,390 -905,390 -242,0 -466,-59 -671,-177 -205,-118 -322,-290 -351,-515l3035 0c11,-142 17,-268 17,-381 0,-644 -203,-1168 -611,-1572 -404,-407 -908,-611 -1511,-611 -609,0 -1122,199 -1537,597 -416,396 -623,912 -623,1550 0,638 208,1159 623,1563 416,404 928,606 1537,606zm-567 -3057c185,-118 377,-178 576,-178 202,0 390,61 563,182 176,121 279,297 307,528l-1793 0c46,-237 162,-414 346,-532zm-7337 2970l0 -6109 1295 0 0 2490 2174 0 0 -2490 1312 0 0 6109 -1312 0 0 -2455 -2174 0 0 2455 -1295 0z"/>
  </g>
 </g>
</svg>
