<svg width="24" height="24" viewBox="0 0 24 24" fill="none" xmlns="http://www.w3.org/2000/svg">
<g clip-path="url(#clip0)">
  <path id="Path_2898" data-name="Path 2898" d="M2.237,10.171a7.369,7.369,0,0,1-.054-.859A7.1,7.1,0,0,1,14.1,4.063l-.629.64a.558.558,0,0,0-.142.546.571.571,0,0,0,.415.371c.11.022,3.718,1.185,3.488,1.139a.552.552,0,0,0,.644-.644C17.849,6,17.05,2,17.1,2.226a.541.541,0,0,0-.917-.273l-.535.524A9.319,9.319,0,0,0,0,9.312v.022c0,.308.014.545.03.727a.546.546,0,0,0,.437.486l1.121.224a.546.546,0,0,0,.649-.6Zm0,0" transform="translate(0)" fill="white"/>
  <path id="Path_2899" data-name="Path 2899" d="M37.862,215.661l-1.124-.229a.546.546,0,0,0-.651.6,7.429,7.429,0,0,1,.056.864,7.092,7.092,0,0,1-11.913,5.238l.629-.629A.558.558,0,0,0,25,220.96a.571.571,0,0,0-.415-.371c-.11-.022-3.718-1.185-3.488-1.139a.535.535,0,0,0-.491.153.543.543,0,0,0-.153.491l.775,3.852a.547.547,0,0,0,.382.415.524.524,0,0,0,.535-.142l.524-.524a9.3,9.3,0,0,0,15.657-6.8v-.033c0-.242-.009-.479-.029-.715a.545.545,0,0,0-.435-.488Zm0,0" transform="translate(-19.702 -207.585)" fill="white"/>
</g>
<defs>
<clipPath id="clip0">
<rect width="23.6952" height="23.6471" fill="white"/>
</clipPath>
</defs>
</svg>
