<svg width="24" height="24" viewBox="0 0 24 24" fill="none" xmlns="http://www.w3.org/2000/svg">
<g clip-path="url(#clip0)">
<path d="M11.8477 14.7794C13.4835 14.7794 14.8096 13.456 14.8096 11.8236C14.8096 10.1911 13.4835 8.86768 11.8477 8.86768C10.2119 8.86768 8.88577 10.1911 8.88577 11.8236C8.88577 13.456 10.2119 14.7794 11.8477 14.7794Z" stroke="white" stroke-width="2" stroke-linecap="round" stroke-linejoin="round"/>
<path d="M19.1537 14.7795C19.0223 15.0766 18.9831 15.4063 19.0412 15.7259C19.0992 16.0456 19.2519 16.3405 19.4795 16.5727L19.5388 16.6318C19.7224 16.8148 19.868 17.0322 19.9674 17.2714C20.0667 17.5106 20.1179 17.767 20.1179 18.026C20.1179 18.285 20.0667 18.5414 19.9674 18.7806C19.868 19.0199 19.7224 19.2372 19.5388 19.4202C19.3554 19.6034 19.1376 19.7488 18.8979 19.8479C18.6582 19.9471 18.4012 19.9982 18.1417 19.9982C17.8822 19.9982 17.6253 19.9471 17.3856 19.8479C17.1459 19.7488 16.9281 19.6034 16.7447 19.4202L16.6855 19.3611C16.4528 19.1339 16.1572 18.9816 15.837 18.9236C15.5167 18.8657 15.1864 18.9048 14.8886 19.0359C14.5966 19.1608 14.3475 19.3682 14.1721 19.6326C13.9967 19.8969 13.9025 20.2067 13.9013 20.5237V20.6912C13.9013 21.2139 13.6932 21.7151 13.3229 22.0846C12.9526 22.4542 12.4504 22.6618 11.9267 22.6618C11.403 22.6618 10.9007 22.4542 10.5304 22.0846C10.1601 21.7151 9.95206 21.2139 9.95206 20.6912V20.6026C9.94442 20.2764 9.83864 19.9601 9.64848 19.6948C9.45832 19.4295 9.19257 19.2274 8.88578 19.1148C8.58799 18.9836 8.25766 18.9445 7.93739 19.0024C7.61711 19.0604 7.32158 19.2128 7.08889 19.4399L7.02965 19.499C6.84626 19.6822 6.62849 19.8276 6.38877 19.9268C6.14906 20.0259 5.89211 20.077 5.63262 20.077C5.37313 20.077 5.11618 20.0259 4.87646 19.9268C4.63675 19.8276 4.41898 19.6822 4.23559 19.499C4.052 19.316 3.90635 19.0987 3.80698 18.8595C3.70761 18.6202 3.65646 18.3638 3.65646 18.1048C3.65646 17.8459 3.70761 17.5894 3.80698 17.3502C3.90635 17.111 4.052 16.8937 4.23559 16.7106L4.29483 16.6515C4.52244 16.4193 4.67512 16.1244 4.73319 15.8048C4.79126 15.4851 4.75206 15.1555 4.62064 14.8583C4.49548 14.5669 4.28767 14.3183 4.02279 14.1433C3.75791 13.9682 3.44751 13.8743 3.12981 13.873H2.96197C2.43827 13.873 1.93602 13.6654 1.56571 13.2958C1.1954 12.9263 0.987366 12.425 0.987366 11.9024C0.987366 11.3798 1.1954 10.8786 1.56571 10.509C1.93602 10.1394 2.43827 9.93182 2.96197 9.93182H3.05083C3.37762 9.92419 3.69455 9.81863 3.96043 9.62885C4.2263 9.43908 4.42882 9.17387 4.54165 8.8677C4.67308 8.57052 4.71228 8.24087 4.65421 7.92124C4.59614 7.60162 4.44345 7.30668 4.21584 7.07447L4.1566 7.01535C3.97301 6.83234 3.82737 6.615 3.728 6.37578C3.62863 6.13655 3.57748 5.88013 3.57748 5.62116C3.57748 5.36219 3.62863 5.10577 3.728 4.86654C3.82737 4.62732 3.97301 4.40998 4.1566 4.22697C4.33999 4.04375 4.55777 3.8984 4.79748 3.79923C5.03719 3.70007 5.29414 3.64902 5.55364 3.64902C5.81313 3.64902 6.07008 3.70007 6.30979 3.79923C6.5495 3.8984 6.76728 4.04375 6.95067 4.22697L7.00991 4.28609C7.24259 4.51323 7.53813 4.66561 7.8584 4.72356C8.17868 4.78152 8.50901 4.74239 8.80679 4.61123H8.88578C9.17779 4.48634 9.42684 4.27895 9.60226 4.0146C9.77768 3.75026 9.87181 3.44049 9.87308 3.12344V2.95594C9.87308 2.43331 10.0811 1.93208 10.4514 1.56252C10.8217 1.19297 11.324 0.985352 11.8477 0.985352C12.3714 0.985352 12.8736 1.19297 13.2439 1.56252C13.6142 1.93208 13.8223 2.43331 13.8223 2.95594V3.04462C13.8236 3.36167 13.9177 3.67144 14.0931 3.93578C14.2685 4.20013 14.5176 4.40751 14.8096 4.53241C15.1074 4.66357 15.4377 4.70269 15.758 4.64474C16.0783 4.58678 16.3738 4.43441 16.6065 4.20726L16.6657 4.14815C16.8491 3.96493 17.0669 3.81958 17.3066 3.72041C17.5463 3.62124 17.8033 3.5702 18.0627 3.5702C18.3222 3.5702 18.5792 3.62124 18.8189 3.72041C19.0586 3.81958 19.2764 3.96493 19.4598 4.14815C19.6434 4.33116 19.789 4.54849 19.8884 4.78772C19.9878 5.02694 20.0389 5.28337 20.0389 5.54234C20.0389 5.8013 19.9878 6.05773 19.8884 6.29695C19.789 6.53618 19.6434 6.75351 19.4598 6.93653L19.4005 6.99565C19.1729 7.22786 19.0202 7.52279 18.9622 7.84242C18.9041 8.16204 18.9433 8.4917 19.0747 8.78888V8.8677C19.1999 9.15912 19.4077 9.40766 19.6726 9.58273C19.9375 9.75779 20.2479 9.85173 20.5656 9.853H20.7334C21.2571 9.853 21.7593 10.0606 22.1297 10.4302C22.5 10.7997 22.708 11.301 22.708 11.8236C22.708 12.3462 22.5 12.8474 22.1297 13.217C21.7593 13.5866 21.2571 13.7942 20.7334 13.7942H20.6445C20.3268 13.7954 20.0164 13.8894 19.7516 14.0644C19.4867 14.2395 19.2789 14.488 19.1537 14.7795V14.7795Z" stroke="white" stroke-width="2" stroke-linecap="round" stroke-linejoin="round"/>
</g>
<defs>
<clipPath id="clip0">
<rect width="23.6952" height="23.6471" fill="white"/>
</clipPath>
</defs>
</svg>
