<svg width="150" height="361" viewBox="0 0 150 361" fill="none" xmlns="http://www.w3.org/2000/svg">
<g opacity="0.3">
<path fill-rule="evenodd" clip-rule="evenodd" d="M113.564 74.6843C107.475 76.2829 101.948 76.2962 99.7428 74.9801C94.2124 71.6799 100.093 49.6285 107.258 42.3591C114.423 35.0896 139.329 38.3205 135.506 55.771C134.179 61.8274 130.131 66.3912 125.18 69.631L122.742 102.338L103.568 96.7048L113.564 74.6843Z" fill="#B28B67"/>
<path fill-rule="evenodd" clip-rule="evenodd" d="M119.261 51.1488C118.395 48.6932 117.381 46.6979 115.832 45.1909C107.01 42.75 106.445 40.8738 108.003 35.5681C109.72 34.9699 115.226 34.7312 120.972 35.8969C124.071 35.9186 127.412 37.0675 130.274 39.3906C133.966 41.7165 136.653 45.1792 136.806 50.2291C139.492 61.2349 132.48 69.8099 125.923 71.5167C124.956 69.3228 124.161 67.2388 123.485 65.2685C124.679 64.6344 125.627 63.5383 126.039 62.1383C126.849 59.3805 125.27 56.4881 122.512 55.6779C122.058 55.5444 121.6 55.4758 121.149 55.4666C120.275 58.1082 116.255 70.0365 113.713 73.71C110.847 77.85 101.657 76.3733 98.5667 75.4655C95.8979 74.6815 96.7313 72.181 97.3286 70.3889C97.4146 70.1308 97.4957 69.8874 97.5608 69.666C97.6967 69.2033 98.2982 69.3813 98.9777 69.5824C99.8602 69.8435 100.874 70.1436 101.172 69.1306C101.496 68.0263 100.219 66.731 99.0762 65.5718C98.3632 64.8487 97.7025 64.1785 97.5155 63.6409C96.9258 61.9447 97.144 59.9547 98.655 60.3986C99.4809 60.6412 100.474 61.4503 101.669 62.4236C103.473 63.8931 105.737 65.737 108.579 66.5718C112.755 67.7986 118.081 54.2988 119.261 51.1488Z" fill="#191847"/>
<path fill-rule="evenodd" clip-rule="evenodd" d="M143.015 168.906L111.726 271.398L96.5685 358.561H84.6841L100.7 168.906H143.015Z" fill="#997659"/>
<path fill-rule="evenodd" clip-rule="evenodd" d="M154.209 168.906C152.084 225.18 154.585 254.207 155.061 259.319C155.536 264.432 162.05 297.583 177.469 360.277L164.805 355.92C140.436 298.42 132.132 268.536 129.337 260.985C126.542 253.435 119.119 222.742 107.067 168.906H154.209Z" fill="#B28B67"/>
<path fill-rule="evenodd" clip-rule="evenodd" d="M174.73 355.073C175.807 354.611 177.084 355.087 177.475 356.192C178.061 357.849 178.769 360.122 178.769 361.441C178.769 363.695 178.02 368.018 178.02 368.018C175.411 368.018 131.122 368.018 131.122 368.018C131.122 368.018 129.294 361.963 133.233 361.48C137.171 360.997 139.777 360.608 139.777 360.608L161.415 350.943C161.929 350.713 162.533 350.954 162.747 351.476L164.082 354.721C164.082 354.721 167.728 356.425 170.008 356.425C171.294 356.425 173.26 355.703 174.73 355.073Z" fill="#E4E4E4"/>
<path fill-rule="evenodd" clip-rule="evenodd" d="M96.5699 355.073C97.6472 354.611 98.9239 355.087 99.315 356.192C99.9016 357.849 100.609 360.122 100.609 361.441C100.609 363.695 99.86 368.018 99.86 368.018C97.2509 368.018 52.9627 368.018 52.9627 368.018C52.9627 368.018 51.1347 361.963 55.0732 361.48C59.0118 360.997 61.6169 360.608 61.6169 360.608L83.2549 350.943C83.7698 350.713 84.373 350.954 84.5875 351.476L85.9227 354.721C85.9227 354.721 89.5687 356.425 91.8483 356.425C93.1341 356.425 95.1001 355.703 96.5699 355.073Z" fill="#E4E4E4"/>
<path fill-rule="evenodd" clip-rule="evenodd" d="M147.173 168.906L133.869 221.125H93.2339L99.2928 168.906H147.173Z" fill="#3B9961"/>
<path fill-rule="evenodd" clip-rule="evenodd" d="M154.656 168.906C161.222 188.626 157.151 221.125 157.151 221.125H115.684L104.282 168.906H154.656Z" fill="#4EC07C"/>
<path fill-rule="evenodd" clip-rule="evenodd" d="M48.4825 188.624L68.6451 162.594L78.287 174.904L56.0053 192.614C51.2606 203.047 48.265 207.688 47.0185 206.537C45.9675 205.566 46.2095 204.306 46.4325 203.145C46.6062 202.241 46.7683 201.397 46.2985 200.797C45.2257 199.427 40.4688 200.967 36.0171 202.62C31.5654 204.274 32.3117 201.872 33.1228 200.559C36.9725 196.452 42.0924 192.474 48.4825 188.624ZM190.817 202.323C187.713 197.769 172.78 151.23 172.78 151.23L155.557 153.72C155.557 153.72 178.746 202.907 180.46 205.875C182.687 209.731 180.715 216.065 179.377 220.36C179.171 221.024 178.979 221.64 178.82 222.19C181.627 222.998 182.695 221.394 183.821 219.703C185.094 217.793 186.439 215.772 190.448 216.99C191.997 217.461 193.484 218.066 194.938 218.657C199.959 220.698 204.572 222.573 209.872 218.184C210.712 217.489 211.42 215.214 208.75 213.889C202.099 210.589 192.334 204.55 190.817 202.323Z" fill="#B28B67"/>
<path fill-rule="evenodd" clip-rule="evenodd" d="M113.664 85.9328L106.362 85.7141C98.3881 118.052 80.8639 148.88 53.7896 178.198L80.8451 202.983C106.425 163.061 120.114 123.658 113.664 85.9328Z" fill="#191847"/>
<path fill-rule="evenodd" clip-rule="evenodd" d="M157.319 171.014L93.8242 179.937C93.8242 179.937 108.363 123.281 103.102 85.8465L121.855 80.306C140.304 102.357 148.737 131.513 157.319 171.014Z" fill="#DDE3E9"/>
<path fill-rule="evenodd" clip-rule="evenodd" d="M122.262 80.2625L122.276 80.2468C122.276 80.2468 172.064 116.895 189.998 194.121L159.05 198.471C158.818 194.991 158.496 191.566 158.095 188.201L116.534 194.042C116.534 194.042 114.092 119.766 111.433 95.5174L114.206 81.6644C114.206 81.6644 118.769 80.8182 121.003 80.4257L122.253 80.25C122.256 80.2542 122.259 80.2583 122.262 80.2625Z" fill="#2F3676"/>
<path fill-rule="evenodd" clip-rule="evenodd" d="M158.134 188.527C156.412 173.87 153.186 160.333 149.275 148.223C150.212 163.114 150.336 181.173 146.555 190.154L158.134 188.527Z" fill="black" fill-opacity="0.1"/>
<path fill-rule="evenodd" clip-rule="evenodd" d="M145.351 164.302L123.489 157.662L124.827 167.186L145.351 164.302Z" fill="white" fill-opacity="0.2"/>
</g>
</svg>
