<svg width="122" height="203" viewBox="0 0 122 203" fill="none" xmlns="http://www.w3.org/2000/svg">
<path opacity="0.8" fill-rule="evenodd" clip-rule="evenodd" d="M-0.490723 168.116C-0.490723 193.672 1.52605 214.39 28.5958 214.39C55.6656 214.39 57.6823 193.672 57.6823 168.116" fill="#081F9E"/>
<path opacity="0.8" fill-rule="evenodd" clip-rule="evenodd" d="M36.6492 152.171C35.6569 153.887 34.7722 155.636 33.9907 157.413C33.9631 153.755 34.1654 150.07 34.7177 146.335C35.6619 139.936 37.1039 133.571 38.459 127.217C39.4328 122.65 39.3713 114.447 43.0673 110.808C44.0807 110.021 44.3247 111.564 44.3247 112.234C44.3375 112.376 44.3219 109.501 43.3382 110.002C37.4908 113.022 35.5961 122.517 33.7241 127.272C30.9927 134.212 28.6688 141.306 27.7119 148.526C27.47 150.35 27.3385 152.173 27.3081 153.993C27.1093 153.506 26.9226 153.016 26.7161 152.531C23.3412 144.615 18.7866 136.892 13.1062 129.769C11.708 128.016 -5.87309 110.723 -7.24936 113.369C-7.11357 113.754 -6.82926 114.073 -6.39573 114.326C-6.37027 114.355 -6.36956 114.339 -6.38442 114.296C-5.35186 115.964 -2.41614 118.54 -1.50169 120.002C0.799635 123.68 2.58822 127.583 4.40581 131.411C8.24607 139.502 11.8084 147.674 15.2618 155.864C16.0659 157.771 16.904 159.668 17.759 161.559C8.94481 148.846 -2.81361 137.304 -19 130.697C-13.4716 133.509 -9.84702 138.801 -6.11355 142.852C-1.61061 147.739 3.13208 152.495 7.64351 157.376C12.9647 163.135 19.2258 169.199 24.3441 175.571C29.3017 185.98 34.1194 196.4 37.0933 207.341C35.8748 203.561 36.9978 198.337 36.7892 194.369C36.6237 191.211 36.2545 188.079 35.7489 184.953C36.3741 186.363 36.913 187.774 37.157 189.087C36.9342 186.885 36.6775 184.698 36.4016 182.522C37.1096 180.484 37.8048 178.583 38.2744 177.017C40.6811 168.984 43.5468 161.089 47.4493 153.394C51.0604 146.276 55.2027 139.248 59.7162 132.435C61.8216 129.258 63.9561 126.093 66.077 122.923C67.4653 120.848 68.7872 117.525 70.72 115.537C58.2261 126.959 44.5758 138.465 36.6492 152.171Z" fill="#081F9E"/>
<path fill-rule="evenodd" clip-rule="evenodd" d="M19.0721 29.0519C34.2471 54.5098 51.921 79.1601 62.5349 106.995C62.1072 103.714 61.6536 100.436 61.146 97.1635C58.4529 79.8145 55.1058 62.5921 51.5886 45.3909C49.7974 36.6328 47.903 27.9065 45.96 19.181C44.915 14.4945 43.8828 9.8051 42.8163 5.12306C42.558 3.98825 42.336 2.00752 42.0126 0C52.3275 33.8485 62.2746 67.7226 69.5506 102.385C70.5051 106.934 71.3179 111.475 71.9838 116.008C72.2115 114.974 72.4356 113.94 72.6808 112.908C75.6248 100.546 80.0408 88.2812 85.2989 76.7217C87.8126 71.1937 90.7 65.7868 94.0995 60.7486C96.2194 57.6081 101.219 53.8749 103.153 50.6586C92.5764 70.0568 88.7575 94.3279 82.6507 115.417C81.1602 120.564 79.6604 125.702 78.1908 130.849C87.4001 112.38 101.688 97.2056 121.554 90.6297C97.5075 106.518 83.0839 134.343 73.3644 162.801C73.3324 163.139 73.2943 163.476 73.2614 163.814C76.1215 158.386 79.7242 153.476 84.607 150.038C95.0575 142.676 106.651 144.821 116.788 151.135C108.832 146.078 94.4528 150.683 87.7584 155.824C82.966 159.503 78.8703 164.44 75.3136 169.256C74.4614 170.41 73.2987 171.757 72.0704 173.195C70.3483 184.373 67.5419 195.475 63.5686 206.489C64.2243 203.328 63.7502 198.272 63.9321 195.916C63.9519 195.66 63.9679 195.405 63.9875 195.151C63.3836 197.562 62.8001 199.946 62.2383 202.292C63.3551 197.816 63.962 193.143 64.4359 188.422C64.5579 186.394 64.6769 184.365 64.8027 182.336C64.7628 178.486 64.6042 174.621 64.336 170.749C63.385 166.986 62.3201 163.437 61.442 160.485C58.2731 149.835 53.6276 139.632 47.9099 130.113C42.6931 121.427 36.4486 113.559 29.2396 106.443C25.3534 102.608 21.2862 98.9561 17.2764 95.253C15.8264 93.9142 13.2346 90.6227 10.9932 88.9068C27.3176 97.9066 44.1199 107.643 56.0286 122.144C54.6325 116.782 53.1161 111.497 51.5119 106.317C43.3739 80.0385 33.0984 52.8032 19.0721 29.0519Z" fill="#304ECA"/>
<path fill-rule="evenodd" clip-rule="evenodd" d="M35.3811 173.158C35.3811 202.342 37.6922 226 68.712 226C99.7319 226 102.043 202.342 102.043 173.158" fill="#304ECA"/>
</svg>
