<?xml version="1.0" encoding="UTF-8"?>
<svg width="21px" height="20px" viewBox="0 0 21 20" version="1.1" xmlns="http://www.w3.org/2000/svg" xmlns:xlink="http://www.w3.org/1999/xlink">
    <!-- Generator: Sketch 59.1 (86144) - https://sketch.com -->
    <title>xhdpi/Health_Status_Advice</title>
    <desc>Created with Sketch.</desc>
    <g id="Health_Buddy" stroke="none" stroke-width="1" fill="none" fill-rule="evenodd">
        <g id="Home01" transform="translate(-24.000000, -140.000000)" fill="#0D2D9F">
            <g id="Health_Status_Advice" transform="translate(24.000000, 140.000000)">
                <g id="Fill-4453-+-Fill-4454-+-Fill-4455" transform="translate(0.069340, 0.079245)">
                    <path d="M20.4267099,11.2998821 L13.9075472,11.2998821 C13.7428297,11.2998821 13.5924543,11.3928888 13.5185705,11.5402219 L12.7145404,13.148282 L11.2833669,8.13808815 C11.2342558,7.96554764 11.0838805,7.84081433 10.90569,7.82429912 C10.721415,7.80865313 10.5566975,7.90252907 10.4762945,8.06290047 L8.63832524,11.7392736 L7.31536981,9.75484051 C7.23713986,9.63749558 7.10719121,9.56578479 6.96550808,9.56143868 C6.8303441,9.56143868 6.69039941,9.62271881 6.60608491,9.73528302 L5.43263561,11.2998821 L0.434610849,11.2998821 C0.19427105,11.2998821 0,11.4941531 0,11.7344929 C0,11.9748327 0.19427105,12.1691038 0.434610849,12.1691038 L5.64994104,12.1691038 C5.78640884,12.1691038 5.91548827,12.1047814 5.99762972,11.9952594 L6.93291226,10.7479263 L8.33062075,12.844489 C8.4166737,12.9735685 8.5566184,13.0470177 8.71959746,13.0370216 C8.87388432,13.0274602 9.01165596,12.9361919 9.08119369,12.7975511 L10.7544455,9.45104752 L12.185619,14.4612414 C12.23473,14.6337819 12.3851054,14.7585152 12.5632958,14.7750304 C12.5767688,14.7763343 12.5906763,14.7767689 12.6037146,14.7767689 C12.7671283,14.7767689 12.9183729,14.6846314 12.9926913,14.5364291 L14.1761367,12.1691038 L20.4267099,12.1691038 C20.6670497,12.1691038 20.8613208,11.9748327 20.8613208,11.7344929 C20.8613208,11.4941531 20.6670497,11.2998821 20.4267099,11.2998821" id="Fill-4453"></path>
                    <path d="M2.0958239,10.4302258 C2.15058486,10.4302258 2.20664966,10.4202297 2.26054141,10.3980646 C2.48262755,10.3072309 2.58910721,10.0534182 2.49827354,9.83089741 C1.99412496,8.59877565 1.73857378,7.38664599 1.73857378,6.22840808 C1.73857378,2.77455566 3.66129218,1.08087718 5.56662614,0.935282547 C7.41719913,0.790122524 9.51071959,2.07700525 10.0009606,5.26574505 C10.0339911,5.47740053 10.2165276,5.63429505 10.4307908,5.63429505 C10.6450539,5.63429505 10.8275905,5.47740053 10.8601863,5.26574505 C11.3578157,2.03310955 13.5182662,0.733623113 15.4157772,0.880086969 C17.2611349,1.0213355 19.1230077,2.57072317 19.1230077,5.71382883 C19.1230077,6.97202724 18.7727114,8.35017824 18.0816801,9.80960147 C17.979112,10.0264723 18.0721187,10.285935 18.2889895,10.3885031 C18.5062949,10.4923751 18.7648884,10.3984992 18.8678912,10.1816284 C19.614118,8.6048602 19.9922294,7.10197588 19.9922294,5.71382883 C19.9922294,3.13441344 18.581048,0.250335849 15.4822727,0.0134729363 C13.6095345,-0.125167925 11.4247458,0.924851887 10.4307908,3.49296739 C9.45204713,0.968312972 7.33505768,-0.0756222877 5.50056529,0.0686685142 C3.19538935,0.244685908 0.869352081,2.21781916 0.869352081,6.22840808 C0.869352081,7.50007942 1.14619919,8.82303485 1.69337425,10.1603324 C1.76204277,10.3285268 1.92458722,10.4302258 2.0958239,10.4302258" id="Fill-4454"></path>
                    <path d="M15.9745129,13.2097795 C13.8288391,16.0408345 11.2159587,18.2651728 10.411494,18.9227391 C9.54140312,18.3064609 6.65862936,16.1516603 4.45949846,13.2123871 C4.31607688,13.0202891 4.04401049,12.9803049 3.85104327,13.1245957 C3.65894528,13.2684519 3.61939569,13.5409529 3.76325188,13.7326163 C6.46044681,17.3372787 10.0399018,19.7267691 10.1907117,19.8271642 C10.2637264,19.875406 10.3476062,19.8993096 10.4306169,19.8993096 C10.5249275,19.8993096 10.6188034,19.8684523 10.6965988,19.808476 C10.8321973,19.7033001 14.037887,17.2034185 16.6672826,13.735224 C16.8124426,13.5439952 16.7746315,13.2714942 16.5834027,13.1263342 C16.3917393,12.9807395 16.1188037,13.0194199 15.9745129,13.2097795" id="Fill-4455"></path>
                </g>
            </g>
        </g>
    </g>
</svg>