<?xml version="1.0" encoding="UTF-8"?>
<!DOCTYPE svg PUBLIC "-//W3C//DTD SVG 1.1//EN" "http://www.w3.org/Graphics/SVG/1.1/DTD/svg11.dtd">
<!-- Creator: CorelDRAW X6 -->
<svg xmlns="http://www.w3.org/2000/svg" xml:space="preserve" width="127.001mm" height="18.5082mm" version="1.1" style="shape-rendering:geometricPrecision; text-rendering:geometricPrecision; image-rendering:optimizeQuality; fill-rule:evenodd; clip-rule:evenodd"
viewBox="0 0 5774 841"
 xmlns:xlink="http://www.w3.org/1999/xlink">
 <defs>
  <style type="text/css">
   <![CDATA[
    .fil0 {fill:#152FBF;fill-rule:nonzero}
    .fil1 {fill:#1CABE2;fill-rule:nonzero}
    .fil2 {fill:#4FD183;fill-rule:nonzero}
    .fil3 {fill:#8DD3FF;fill-rule:nonzero}
   ]]>
  </style>
 </defs>
 <g id="Layer_x0020_1">
  <metadata id="CorelCorpID_0Corel-Layer"/>
  <g id="_1371994144">
   <path class="fil0" d="M370 0c-73,0 -133,59 -133,133 0,73 60,133 133,133 73,0 133,-59 133,-133 0,-73 -60,-133 -133,-133z"/>
   <path class="fil1" d="M741 439c0,-73 -59,-133 -132,-133l-371 0 0 266 371 0c73,0 132,-59 132,-133z"/>
   <path class="fil2" d="M132 307c-73,0 -132,59 -132,133 0,73 59,133 132,133l106 0 0 102c0,74 59,133 133,133 73,0 133,-60 133,-133l0 -102 0 -266 -371 0z"/>
   <path class="fil3" d="M238 307c0,147 119,266 265,266l0 -266 -265 0z"/>
   <path class="fil0" d="M5655 452l0 -118 -81 0 0 118 -117 0 0 81 117 0 0 118 81 0 0 -118 119 0 0 -81 -119 0zm-507 189l-82 201 107 0 209 -505 -107 0 -76 192 -75 -192 -107 0 131 304zm-497 -7c32,33 71,49 116,49 22,0 42,-4 60,-13 18,-9 31,-21 40,-37l0 42 100 0 0 -524 -100 0 0 226c-8,-15 -22,-27 -40,-35 -18,-9 -38,-13 -60,-13 -45,0 -84,17 -116,50 -32,33 -48,76 -48,128 0,52 16,94 48,127zm79 -187c15,-15 34,-23 56,-23 22,0 40,7 55,22 15,15 23,34 23,59 0,24 -8,43 -23,59 -15,15 -34,23 -55,23 -22,0 -40,-7 -56,-22 -15,-15 -23,-35 -23,-60 0,-24 8,-43 23,-58zm-518 187c32,33 71,49 116,49 22,0 42,-4 60,-13 18,-9 31,-21 40,-37l0 42 100 0 0 -524 -100 0 0 226c-8,-15 -22,-27 -40,-35 -18,-9 -38,-13 -60,-13 -45,0 -84,17 -116,50 -32,33 -48,76 -48,128 0,52 16,94 48,127zm79 -187c15,-15 34,-23 56,-23 22,0 40,7 55,22 15,15 23,34 23,59 0,24 -8,43 -23,59 -15,15 -34,23 -55,23 -22,0 -40,-7 -56,-22 -15,-15 -23,-35 -23,-60 0,-24 8,-43 23,-58zm-489 199c25,25 57,37 97,37 17,0 33,-5 50,-14 17,-10 29,-23 38,-39l0 46 101 0 0 -339 -101 0 0 179c0,24 -6,41 -18,52 -12,11 -26,17 -44,17 -15,0 -29,-5 -41,-16 -13,-10 -19,-28 -19,-52l0 -181 -101 0 0 203c0,47 12,82 37,107zm-271 30c48,0 87,-15 116,-44 29,-30 44,-66 44,-109 0,-23 -8,-46 -24,-68 -16,-23 -40,-38 -70,-46 24,-9 41,-22 52,-39 11,-17 16,-35 16,-54 0,-43 -13,-76 -40,-101 -27,-25 -63,-38 -108,-38l-200 0 0 500 215 0zm-108 -215l100 0c17,0 31,6 41,18 10,12 15,26 15,41 0,16 -5,31 -14,43 -9,12 -22,18 -39,18l-103 0 0 -121zm0 -192l83 0c16,0 27,5 35,14 8,9 12,22 12,38 0,15 -4,27 -13,37 -9,10 -20,15 -33,15l-83 0 0 -104zm-463 407l0 -179c0,-24 7,-41 20,-52 13,-11 29,-17 48,-17 17,0 31,6 44,18 13,12 19,28 19,49l0 181 101 0 0 -184c0,-52 -12,-92 -35,-120 -23,-28 -57,-42 -101,-42 -18,0 -37,5 -57,16 -19,10 -32,25 -38,45l0 -238 -101 0 0 524 101 0zm-337 -259l0 259 100 0 0 -259 71 0 0 -80 -71 0 0 -130 -100 0 0 130 -62 0 0 80 62 0zm-127 -265l-101 0 0 524 101 0 0 -524zm0 524zm-396 6c16,0 34,-4 54,-12 20,-8 35,-19 45,-33l0 39 100 0 0 -339 -100 0 0 38c-12,-17 -27,-28 -46,-35 -19,-7 -37,-10 -53,-10 -45,0 -86,16 -121,49 -35,33 -52,75 -52,127 0,52 17,95 52,127 35,33 75,49 121,49zm17 -257c22,0 41,7 57,22 17,15 25,34 25,59 0,24 -8,44 -25,59 -17,15 -36,22 -57,22 -22,0 -42,-8 -59,-23 -17,-15 -26,-35 -26,-58 0,-23 9,-43 26,-58 17,-15 37,-23 59,-23zm-414 258l1 0c72,0 123,-23 154,-69l-73 -50c-17,21 -41,32 -74,32 -20,0 -38,-5 -55,-15 -17,-10 -26,-24 -29,-42l249 0c1,-12 1,-22 1,-31 0,-53 -17,-96 -50,-129 -33,-33 -74,-50 -124,-50 -50,0 -92,16 -126,49 -34,32 -51,75 -51,127 0,52 17,95 51,128 34,33 76,50 126,50zm-46 -250c15,-10 31,-15 47,-15 17,0 32,5 46,15 14,10 23,24 25,43l-147 0c4,-19 13,-34 28,-44zm-601 243l0 -500 106 0 0 204 178 0 0 -204 107 0 0 500 -107 0 0 -201 -178 0 0 201 -106 0z"/>
  </g>
 </g>
</svg>
