<svg width="24" height="24" viewBox="0 0 24 24" fill="none" xmlns="http://www.w3.org/2000/svg">
<path d="M5 6.63477V10.4529H8.81818" stroke="#152FBF" stroke-width="2" stroke-linecap="round" stroke-linejoin="round"/>
<path d="M19.0001 16.8167V12.9985H15.1819" stroke="#152FBF" stroke-width="2" stroke-linecap="round" stroke-linejoin="round"/>
<path d="M17.4027 9.81668C17.08 8.90463 16.5315 8.08921 15.8083 7.44649C15.0852 6.80377 14.2111 6.35471 13.2675 6.1412C12.3238 5.9277 11.3415 5.95671 10.4122 6.22553C9.48278 6.49435 8.63666 6.99422 7.95273 7.67849L5 10.453M19 12.9985L16.0473 15.773C15.3633 16.4573 14.5172 16.9572 13.5878 17.226C12.6585 17.4948 11.6762 17.5238 10.7325 17.3103C9.78893 17.0968 8.91478 16.6478 8.19166 16.005C7.46854 15.3623 6.92002 14.5469 6.59727 13.6349" stroke="#152FBF" stroke-width="2" stroke-linecap="round" stroke-linejoin="round"/>
</svg>
