<svg width="60" height="52" viewBox="0 0 60 52" fill="none" xmlns="http://www.w3.org/2000/svg">
<path d="M34 34V32C34 30.9391 33.5786 29.9217 32.8284 29.1716C32.0783 28.4214 31.0609 28 30 28H22C20.9391 28 19.9217 28.4214 19.1716 29.1716C18.4214 29.9217 18 30.9391 18 32V34" stroke="#152FBF" stroke-width="1.8" stroke-linecap="round" stroke-linejoin="round"/>
<path d="M26 24C28.2091 24 30 22.2091 30 20C30 17.7909 28.2091 16 26 16C23.7909 16 22 17.7909 22 20C22 22.2091 23.7909 24 26 24Z" stroke="#152FBF" stroke-width="1.8" stroke-linecap="round" stroke-linejoin="round"/>
<path d="M48 13.8875C43.7238 6.2018 35.5044 1 26.0667 1C12.2227 1 1 12.1929 1 26C1 39.8071 12.2227 51 26.0667 51C35.5044 51 43.7238 45.7982 48 38.1125" stroke="#152FBF" stroke-width="1.8" stroke-linecap="round"/>
<path d="M44 25.3578H55.1789" stroke="#152FBF" stroke-width="2" stroke-linecap="round" stroke-linejoin="round"/>
<path d="M40 25.3578H40.1789" stroke="#152FBF" stroke-width="2" stroke-linecap="round" stroke-linejoin="round"/>
<path d="M50.6655 20L56.2355 25.57L50.6655 31.14" stroke="#152FBF" stroke-width="1.8" stroke-linecap="round" stroke-linejoin="round"/>
</svg>
