<svg width="128" height="128" viewBox="0 0 128 128" fill="none" xmlns="http://www.w3.org/2000/svg">
<path opacity="0.1" fill-rule="evenodd" clip-rule="evenodd" d="M64 128C99.3462 128 128 99.3462 128 64C128 28.6538 99.3462 0 64 0C28.6538 0 0 28.6538 0 64C0 99.3462 28.6538 128 64 128Z" fill="#8DD3FF"/>
<path opacity="0.15" fill-rule="evenodd" clip-rule="evenodd" d="M64 116C92.7188 116 116 92.7188 116 64C116 35.2812 92.7188 12 64 12C35.2812 12 12 35.2812 12 64C12 92.7188 35.2812 116 64 116Z" fill="#8DD3FF"/>
<path opacity="0.2" fill-rule="evenodd" clip-rule="evenodd" d="M64 104C86.0914 104 104 86.0914 104 64C104 41.9086 86.0914 24 64 24C41.9086 24 24 41.9086 24 64C24 86.0914 41.9086 104 64 104Z" fill="#8DD3FF"/>
<path d="M46.5 45H74.7C76.6 45 78.2 46.6 78.2 48.5V55.6C78.2 57.5 76.6 59.1 74.7 59.1H46.5C44.6 59.1 43 57.5 43 55.6V48.5C43 46.6 44.6 45 46.5 45Z" stroke="#152FBF" stroke-width="2" stroke-linecap="round" stroke-linejoin="round"/>
<path d="M62.7 79.9008H46.5C44.6 79.9008 43 78.3008 43 76.4008V69.3008C43 67.4008 44.6 65.8008 46.5 65.8008H69.5" stroke="#152FBF" stroke-width="2" stroke-linecap="round" stroke-linejoin="round"/>
<path d="M78.5002 68.7996C78.0002 69.2996 78.0002 70.1996 78.5002 70.6996L80.7002 72.8996C81.2002 73.3996 82.1002 73.3996 82.6002 72.8996L87.8002 67.6996C89.7002 71.7996 87.8002 76.6996 83.7002 78.5996C81.6002 79.5996 79.1002 79.5996 76.9002 78.5996L67.5002 87.9996C66.4002 89.0996 64.5002 89.0996 63.4002 87.9996C62.3002 86.8996 62.3002 84.9996 63.4002 83.8996L72.8002 74.4996C70.9002 70.3996 72.8002 65.4996 76.9002 63.5996C79.0002 62.5996 81.5002 62.5996 83.7002 63.5996L78.5002 68.7996Z" stroke="#152FBF" stroke-width="2" stroke-linecap="round" stroke-linejoin="round"/>
<circle cx="48.5" cy="74.9004" r="1.5" fill="#152FBF"/>
<circle cx="48.5" cy="53.9004" r="1.5" fill="#152FBF"/>
</svg>
