<svg width="24" height="24" viewBox="0 0 24 24" fill="none" xmlns="http://www.w3.org/2000/svg">
<path d="M15.3033 7.38982L18.7588 3.94129M20.7334 1.9707L18.7588 3.94129L20.7334 1.9707ZM11.2454 11.4394C11.7552 11.9414 12.1605 12.539 12.4379 13.1979C12.7152 13.8568 12.8593 14.564 12.8617 15.2787C12.8641 15.9934 12.7248 16.7015 12.4518 17.3623C12.1789 18.023 11.7777 18.6234 11.2713 19.1288C10.7649 19.6341 10.1633 20.0345 9.50118 20.3069C8.83907 20.5793 8.12952 20.7183 7.41336 20.7159C6.69721 20.7136 5.9886 20.5698 5.32834 20.293C4.66808 20.0162 4.06921 19.6117 3.56621 19.103C2.57706 18.0809 2.02973 16.7121 2.04211 15.2912C2.05448 13.8703 2.62556 12.5111 3.63236 11.5064C4.63915 10.5016 6.0011 9.93171 7.42487 9.91936C8.84864 9.90701 10.2203 10.4532 11.2445 11.4404L11.2454 11.4394ZM11.2454 11.4394L15.3033 7.38982L11.2454 11.4394ZM15.3033 7.38982L18.2652 10.3457L21.7207 6.89717L18.7588 3.94129L15.3033 7.38982Z" stroke="white" stroke-width="2" stroke-linecap="round" stroke-linejoin="round"/>
</svg>
