<svg width="82" height="82" viewBox="0 0 82 82" fill="none" xmlns="http://www.w3.org/2000/svg">
<circle cx="41" cy="41" r="41" fill="#E4F5FF"/>
<path d="M53.8333 54.375V51.2917C53.8333 49.6562 53.1836 48.0877 52.0271 46.9312C50.8706 45.7747 49.3021 45.125 47.6666 45.125H35.3333C33.6978 45.125 32.1293 45.7747 30.9728 46.9312C29.8163 48.0877 29.1666 49.6562 29.1666 51.2917V54.375" stroke="#152FBF" stroke-width="2" stroke-linecap="round" stroke-linejoin="round"/>
<path d="M41.5 38.9583C44.9058 38.9583 47.6667 36.1974 47.6667 32.7917C47.6667 29.3859 44.9058 26.625 41.5 26.625C38.0943 26.625 35.3334 29.3859 35.3334 32.7917C35.3334 36.1974 38.0943 38.9583 41.5 38.9583Z" stroke="#152FBF" stroke-width="2" stroke-linecap="round" stroke-linejoin="round"/>
</svg>
