<svg width="35" height="38" viewBox="0 0 35 38" fill="none" xmlns="http://www.w3.org/2000/svg">
<path d="M17.4166 3.41294e-09C13.9869 7.53953e-07 11.1906 2.79772 11.1906 6.24888C11.1906 9.70005 13.9869 12.4978 17.4166 12.4978C20.8462 12.4978 23.6425 9.70004 23.6425 6.24888C23.6425 2.79772 20.8462 -7.47127e-07 17.4166 3.41294e-09Z" fill="#152FBF"/>
<path d="M34.8333 20.6753C34.8333 17.2237 32.0527 14.4257 28.6226 14.4257L11.1904 14.4257L11.1904 26.9248L28.6226 26.9248C32.0527 26.9248 34.8333 24.1268 34.8333 20.6753Z" fill="#1CABE2"/>
<path d="M17.4428 38C20.8813 38 23.6687 35.1951 23.6687 31.735L23.6687 14.4257L11.2168 14.4257L11.2168 31.735C11.2168 35.1951 14.0043 38 17.4428 38Z" fill="#4FD183"/>
<path d="M3.40381e-09 20.6753C3.05147e-07 24.1268 2.78059 26.9248 6.21063 26.9248L23.6429 26.9248L23.6429 14.4257L6.21063 14.4257C2.7806 14.4257 -2.98339e-07 17.2237 3.40381e-09 20.6753Z" fill="#4FD183"/>
<path d="M11.2205 14.4069C11.2205 21.3094 16.8119 26.905 23.6714 26.905L23.6714 14.4069L11.2205 14.4069Z" fill="#8DD3FF"/>
</svg>
